<svg xmlns="http://www.w3.org/2000/svg" viewBox="0 0 64 64"><rect width="64" height="64" rx="18" fill="#07C160"/><path d="M28.6 21.2c-9.1 0-16.4 5.8-16.4 13 0 4.1 2.4 7.7 6.1 10l-1.4 5 5.7-3c1.9.6 3.9.9 6 .9.8 0 1.6 0 2.4-.1-1.2-1.8-1.9-3.9-1.9-6.1 0-6.4 6.2-11.6 13.9-11.6.5 0 1 0 1.5.1-2.2-4.8-8.3-8.2-15.9-8.2z" fill="#fff"/><path d="M43.2 32.4c-6.4 0-11.6 4.1-11.6 9.2s5.2 9.2 11.6 9.2c1.5 0 3-.2 4.3-.7l4 2.1-1-3.5c2.7-1.7 4.3-4.2 4.3-7.1 0-5.1-5.2-9.2-11.6-9.2z" fill="#dffbea"/><circle cx="23.2" cy="31.5" r="1.7" fill="#07C160"/><circle cx="33.8" cy="31.5" r="1.7" fill="#07C160"/><circle cx="39.2" cy="40.3" r="1.4" fill="#07C160"/><circle cx="47.1" cy="40.3" r="1.4" fill="#07C160"/></svg>